<?xml version="1.0" encoding="UTF-8"?>
<svg width="40px" height="40px" viewBox="0 0 40 40" version="1.1" xmlns="http://www.w3.org/2000/svg" xmlns:xlink="http://www.w3.org/1999/xlink">
    <title>Icon/Customer Stories</title>
    <g id="Icon/Customer-Stories" stroke="none" stroke-width="1" fill="none" fill-rule="evenodd">
        <g id="Group-46" transform="translate(6.000000, 1.000000)">
            <path d="M7.9311535,14.2512914 L20.3235808,14.2512914 C21.9661765,14.2512914 23.2977634,15.5828783 23.2977634,17.225474 L23.2977634,36.6967992 C23.2977634,37.5180971 22.63197,38.1838905 21.8106721,38.1838905 C21.4744402,38.1838905 21.148132,38.0699463 20.8849853,37.8606482 L15.053054,33.2221237 C14.5111785,32.7911339 13.7435558,32.7911339 13.2016804,33.2221237 L7.36974903,37.8606482 C6.726973,38.3718909 5.79145597,38.2652621 5.28021326,37.622486 C5.0709151,37.3593393 4.95697094,37.0330312 4.95697094,36.6967992 L4.95697094,17.225474 C4.95697094,15.5828783 6.28855783,14.2512914 7.9311535,14.2512914 Z" id="Rectangle-Copy-86" fill="#8F9CAD"></path>
            <rect id="Rectangle-Copy-102" fill="#1E3859" transform="translate(14.127367, 14.251291) rotate(-270.000000) translate(-14.127367, -14.251291) " x="0.0137699245" y="0.137694198" width="28.2271945" height="28.2271945" rx="14.1135972"></rect>
            <path d="M14.4061968,17.7056806 L11.3507175,19.3120411 C11.0667501,19.4613316 10.7155252,19.3521544 10.5662347,19.068187 C10.5067864,18.9551097 10.4862723,18.8255887 10.5078681,18.6996752 L11.0914128,15.297349 L11.0914128,15.297349 L8.61947805,12.8878082 C8.38974361,12.6638724 8.38504282,12.2961001 8.60897856,12.0663656 C8.69815095,11.9748842 8.81499358,11.9153499 8.94141785,11.8969794 L12.3575476,11.4005867 L12.3575476,11.4005867 L13.8852873,8.30504799 C14.0272709,8.0173576 14.3755906,7.89923899 14.663281,8.04122268 C14.7778408,8.09776133 14.8705677,8.19048817 14.9271063,8.30504799 L16.454846,11.4005867 L16.454846,11.4005867 L19.8709757,11.8969794 C20.1884609,11.9431127 20.4084351,12.2378837 20.3623018,12.5553689 C20.3439313,12.6817932 20.284397,12.7986358 20.1929155,12.8878082 L17.7209808,15.297349 L17.7209808,15.297349 L18.3045254,18.6996752 C18.3587584,19.0158776 18.1463902,19.3161747 17.8301879,19.3704076 C17.7042745,19.3920035 17.5747534,19.3714894 17.4616761,19.3120411 L14.4061968,17.7056806 L14.4061968,17.7056806 Z" id="Star-Copy-6" stroke="#FFFFFF" stroke-width="1.54905342" fill="#FFFFFF" stroke-linecap="round" stroke-linejoin="round"></path>
        </g>
    </g>
</svg>