<svg width="40" height="40" viewBox="0 0 40 40" fill="none" xmlns="http://www.w3.org/2000/svg">
<rect width="40" height="40" fill="white"/>
<g clip-path="url(#clip0)">
<path opacity="0.5" fill-rule="evenodd" clip-rule="evenodd" d="M23.995 16.3406C24.7935 16.5223 25.3892 17.2336 25.3892 18.0832C25.3892 19.0705 24.5849 19.8708 23.5928 19.8708C22.6007 19.8708 21.7964 19.0705 21.7964 18.0832C21.7964 17.2336 22.3921 16.5223 23.1906 16.3406H16.5515C17.4762 16.4137 18.2036 17.1836 18.2036 18.1225C18.2036 19.1098 17.3993 19.9101 16.4072 19.9101C15.4151 19.9101 14.6108 19.1098 14.6108 18.1225C14.6108 17.1836 15.3382 16.4137 16.2629 16.3406H6.01696C4.42956 16.3406 2.95302 17.6211 2.95302 19.2008V31.55H37.2511V19.2008C37.2511 17.6211 35.9643 16.3406 34.3769 16.3406H23.995Z" fill="#091E42"/>
<path fill-rule="evenodd" clip-rule="evenodd" d="M10.0599 30.1036V9.86019C10.0599 8.28055 11.3467 7 12.9341 7H27.0659C28.6533 7 29.9401 8.28055 29.9401 9.86019V30.1036H38.8024C39.4696 30.1036 40.0105 30.6444 40.0105 31.3116C40.0105 31.9788 39.4696 32.5197 38.8024 32.5197H1.1976C0.530412 32.5197 -0.0104523 31.9788 -0.0104523 31.3116C-0.0104523 30.6444 0.530412 30.1036 1.1976 30.1036H10.0599ZM17.7246 30.1036V26.3683C17.7246 25.1493 18.7176 24.1611 19.9426 24.1611C21.1676 24.1611 22.1606 25.1493 22.1606 26.3683V30.1036H17.7246ZM18.2036 18.1225C18.2036 17.1352 17.3993 16.3349 16.4072 16.3349C15.4151 16.3349 14.6108 17.1352 14.6108 18.1225C14.6108 19.1098 15.4151 19.9101 16.4072 19.9101C17.3993 19.9101 18.2036 19.1098 18.2036 18.1225ZM23.5928 16.2956C24.5849 16.2956 25.3892 17.096 25.3892 18.0832C25.3892 19.0705 24.5849 19.8708 23.5928 19.8708C22.6007 19.8708 21.7964 19.0705 21.7964 18.0832C21.7964 17.096 22.6007 16.2956 23.5928 16.2956ZM18.2036 12.3629C18.2036 11.3756 17.3993 10.5752 16.4072 10.5752C15.4151 10.5752 14.6108 11.3756 14.6108 12.3629C14.6108 13.3501 15.4151 14.1505 16.4072 14.1505C17.3993 14.1505 18.2036 13.3501 18.2036 12.3629ZM23.5928 10.5752C24.5849 10.5752 25.3892 11.3756 25.3892 12.3629C25.3892 13.3501 24.5849 14.1505 23.5928 14.1505C22.6007 14.1505 21.7964 13.3501 21.7964 12.3629C21.7964 11.3756 22.6007 10.5752 23.5928 10.5752Z" fill="#091E42"/>
</g>
<defs>
<clipPath id="clip0">
<rect width="40" height="25.5034" fill="white" transform="translate(0 7)"/>
</clipPath>
</defs>
</svg>
