<svg width="40" height="40" viewBox="0 0 40 40" fill="none" xmlns="http://www.w3.org/2000/svg">
<rect width="40" height="40" fill="white"/>
<path fill-rule="evenodd" clip-rule="evenodd" d="M36.6429 0C37.8263 0 38.7857 0.95939 38.7857 2.14286V8.57143C38.7857 9.7549 37.8263 10.7143 36.6429 10.7143H4.14285C2.95939 10.7143 2 9.7549 2 8.57143V2.14286C2 0.959389 2.95939 0 4.14286 0H36.6429Z" fill="#091E42"/>
<path opacity="0.5" fill-rule="evenodd" clip-rule="evenodd" d="M21.9983 5.28149C21.9587 4.42901 21.2551 3.75 20.3929 3.75C19.5053 3.75 18.7857 4.46954 18.7857 5.35714V18.3929H11.6429L11.5283 18.3939C8.32661 18.455 5.75 21.0695 5.75 24.2857V34.6429L5.75175 34.7185C5.79125 35.571 6.4949 36.25 7.35714 36.25C8.24474 36.25 8.96429 35.5305 8.96429 34.6429V24.2857L8.96566 24.199C9.01142 22.7598 10.1925 21.6071 11.6429 21.6071H18.7857V34.6429L18.7875 34.7185C18.827 35.571 19.5306 36.25 20.3929 36.25C21.2805 36.25 22 35.5305 22 34.6429V21.6071H29.1429L29.2295 21.6085C30.6688 21.6543 31.8214 22.8354 31.8214 24.2857V34.6429L31.8232 34.7185C31.8627 35.571 32.5663 36.25 33.4286 36.25C34.3162 36.25 35.0357 35.5305 35.0357 34.6429V24.2857L35.0346 24.1711C34.9736 20.9695 32.3591 18.3929 29.1429 18.3929H22V5.35714L21.9983 5.28149Z" fill="#091E42"/>
<rect x="2" y="29.2857" width="10.7143" height="10.7143" rx="2.14286" fill="#091E42"/>
<rect x="28.0714" y="29.2857" width="10.7143" height="10.7143" rx="2.14286" fill="#091E42"/>
<rect x="15.0357" y="29.2857" width="10.7143" height="10.7143" rx="2.14286" fill="#091E42"/>
</svg>
