<?xml version="1.0" encoding="UTF-8"?>
<svg width="40px" height="40px" viewBox="0 0 40 40" version="1.1" xmlns="http://www.w3.org/2000/svg" xmlns:xlink="http://www.w3.org/1999/xlink">
    <title>Icon/Power-Ups</title>
    <g id="Icon/Power-Ups" stroke="none" stroke-width="1" fill="none" fill-rule="evenodd">
        <g id="rocket" transform="translate(19.500000, 20.000000) scale(1, -1) translate(-19.500000, -20.000000) translate(10.000000, 0.000000)">
            <g id="Group-11-Copy" transform="translate(9.260274, 20.000000) rotate(-270.000000) translate(-9.260274, -20.000000) translate(-10.739726, 11.000000)">
                <path d="M1.39630538,3.39431172 L7.5119094,7.23840567 C8.28054138,7.72154577 8.51197827,8.73630755 8.02883817,9.50493953 C7.89751336,9.71386536 7.72083524,9.89054349 7.5119094,10.0218683 L1.39630538,13.8659623 C1.01198939,14.1075323 0.504608504,13.9918139 0.263038453,13.6074979 C0.180679563,13.4764724 0.136986301,13.3248566 0.136986301,13.1700966 L0.136986301,4.09017737 C0.136986301,3.6362447 0.504971438,3.26825957 0.95890411,3.26825957 C1.11366415,3.26825957 1.26527987,3.31195283 1.39630538,3.39431172 Z" id="Shape-Copy-44" fill="#1E3859"></path>
                <path d="M27.5342466,0 L27.5342466,17.260274 L8.21917808,17.260274 C6.4034474,17.260274 4.93150685,15.7883334 4.93150685,13.9726027 L4.93150685,3.28767123 C4.93150685,1.47194055 6.4034474,7.77633525e-16 8.21917808,0 L27.5342466,0 L27.5342466,0 Z" id="Shape-Copy-44" fill="#8F9CAD"></path>
                <path d="M27.5342466,0 L39.0252015,7.23930161 C39.7933387,7.72322803 40.023737,8.73822611 39.5398106,9.50636327 C39.4088774,9.71419378 39.233032,9.89003914 39.0252015,10.0209724 L27.5342466,17.260274 L27.5342466,17.260274 L27.5342466,0 Z" id="Shape-Copy-44" fill="#1E3859"></path>
                <rect id="Rectangle-Copy-113" fill="#FFFFFF" x="10.1369863" y="6.02739726" width="5.47945205" height="5.47945205" rx="2.73972603"></rect>
                <rect id="Rectangle-Copy-137" fill="#FFFFFF" x="18.0821918" y="6.02739726" width="5.47945205" height="5.47945205" rx="2.73972603"></rect>
            </g>
        </g>
    </g>
</svg>