<svg width="40" height="40" viewBox="0 0 40 40" fill="none" xmlns="http://www.w3.org/2000/svg">
<rect width="40" height="40" fill="white"/>
<path opacity="0.5" d="M16.0206 18.6443C16.0206 17.7577 15.3208 17.0346 14.4434 16.9971L14.3719 16.9956H12.3407C9.91889 16.9956 7.71943 16.0436 6.09611 14.4935L5.91813 14.3188C4.68912 13.079 3.81658 11.4853 3.46695 9.70412L3.44768 9.60111L8.72969 9.60102C9.61628 9.60102 10.3394 8.90121 10.3769 8.02384L10.3784 7.95232C10.3784 7.06573 9.67858 6.34259 8.8012 6.30514L8.72969 6.30362H1.64871C0.738156 6.30362 7.97692e-06 7.04177 7.97692e-06 7.95232C7.97692e-06 14.6997 5.41518 20.1824 12.1366 20.2914L12.3407 20.293H14.3719C15.2825 20.293 16.0206 19.5549 16.0206 18.6443Z" fill="#091E42"/>
<path opacity="0.5" d="M23.9794 18.6443C23.9794 17.7577 24.6792 17.0346 25.5566 16.9971L25.6281 16.9956H27.6593C32.0544 16.9956 35.7173 13.8602 36.5331 9.70412L36.5523 9.60132L31.2703 9.60102C30.3837 9.60102 29.6606 8.90121 29.6232 8.02384L29.6216 7.95232C29.6216 7.06573 30.3214 6.34259 31.1988 6.30514L31.2703 6.30362H38.3513C39.2619 6.30362 40 7.04177 40 7.95232C40 14.6997 34.5848 20.1824 27.8634 20.2914L27.6593 20.293H25.6281C24.7176 20.293 23.9794 19.5549 23.9794 18.6443Z" fill="#091E42"/>
<path fill-rule="evenodd" clip-rule="evenodd" d="M7.1859 1.78012C7.18157 1.78012 7.17807 1.78362 7.17807 1.78794V9.96134C7.17807 16.9726 12.8618 22.6563 19.8731 22.6563V22.6563C26.8843 22.6563 32.568 16.9726 32.568 9.96133V1.78794C32.568 1.78362 32.5645 1.78012 32.5602 1.78012H7.1859Z" fill="#091E42"/>
<path fill-rule="evenodd" clip-rule="evenodd" d="M15.3593 22.3742C15.3593 24.8671 17.3802 26.888 19.8731 26.888V26.888C22.3659 26.888 24.3868 24.8671 24.3868 22.3742V17.8604H15.3593V22.3742Z" fill="#091E42"/>
<path opacity="0.5" fill-rule="evenodd" clip-rule="evenodd" d="M28.4335 35.3513C28.4335 36.2619 27.6953 37 26.7848 37H12.5382L12.4666 36.9985C11.5893 36.961 10.8895 36.2379 10.8895 35.3513C10.8895 34.4407 11.6276 33.7026 12.5382 33.7026H18.0833V18.4247H21.3807V33.7026H26.7848L26.8563 33.7041C27.7336 33.7416 28.4335 34.4647 28.4335 35.3513Z" fill="#091E42"/>
</svg>
