<svg width="40" height="40" viewBox="0 0 40 40" fill="none" xmlns="http://www.w3.org/2000/svg">
<rect width="40" height="40" fill="white"/>
<path opacity="0.5" fill-rule="evenodd" clip-rule="evenodd" d="M19.1114 6.79926L2.57269 23.338L5.18958 26.1003L21.6172 9.6726C21.6798 9.61008 21.7461 9.55361 21.8154 9.50319L19.1114 6.79926ZM10.9123 32.1409L7.46529 28.5024L23.9562 12.0115L24.0148 11.9498C24.0545 11.9059 24.0914 11.8604 24.1256 11.8134L27.6958 15.3836C27.6265 15.4341 27.5602 15.4905 27.4977 15.553L10.9589 32.0918L10.9123 32.1409ZM13.1818 34.5365L15.8037 37.3041L32.71 20.3978L30.006 17.6939C29.9719 17.7408 29.935 17.7863 29.8953 17.8303L29.8366 17.892L13.2979 34.4307C13.2605 34.4681 13.2217 34.5034 13.1818 34.5365Z" fill="#091E42"/>
<path fill-rule="evenodd" clip-rule="evenodd" d="M19.1114 6.79926L32.71 20.3978L36.3906 16.7171C38.113 14.9948 38.113 12.2023 36.3906 10.4799L29.0293 3.11858C27.3069 1.39624 24.5145 1.39623 22.7921 3.11858L19.1114 6.79926Z" fill="#091E42"/>
<path fill-rule="evenodd" clip-rule="evenodd" d="M2.57269 23.338L0.645878 25.2648C0.23233 25.6784 0 26.2393 0 26.8241V37.6716C0 38.8895 0.987286 39.8767 2.20517 39.8767H12.3176C12.9024 39.8767 13.4633 39.6444 13.8769 39.2309L15.8037 37.3041L2.57269 23.338Z" fill="#091E42"/>
</svg>
