<?xml version="1.0" encoding="utf-8"?>
<!-- Generator: Adobe Illustrator 25.2.0, SVG Export Plug-In . SVG Version: 6.00 Build 0)  -->
<svg version="1.1" id="Layer_1" xmlns="http://www.w3.org/2000/svg" xmlns:xlink="http://www.w3.org/1999/xlink" x="0px" y="0px"
	 viewBox="0 0 123.7 33" style="enable-background:new 0 0 123.7 33;" xml:space="preserve">
<style type="text/css">
	.st0{fill:#172B4D;}
	.st1{fill-rule:evenodd;clip-rule:evenodd;fill:url(#SVGID_1_);}
	.st2{fill:#293856;}
</style>
<path class="st0" d="M4.4,8.1c0.7,0,1.5-0.1,2.3-0.3L7.4,10h1.4L5.2,0.8H3.6L0,10h1.4l0.8-2.1C3,8,3.7,8.1,4.4,8.1z M4.4,7
	C3.8,7,3.2,6.9,2.6,6.8l1.9-5.1l1.9,5C5.6,6.9,5,7,4.4,7z M18.2,6.5c0,1.6-0.7,2.5-2.1,2.5c-1,0-1.9-0.7-1.9-2.2V6.2
	c0-1.6,1-2.2,2-2.2C17.5,3.9,18.2,4.8,18.2,6.5z M16.4,10.1c2,0,2.9-1.7,2.9-3.6c0-2.1-0.9-3.6-2.8-3.6c-1.1,0-1.9,0.5-2.4,1.4V0H13
	V10h1.2V8.7C14.6,9.6,15.4,10.1,16.4,10.1z M23.8,9.9V8.9c-0.1,0-0.2,0-0.4,0c-0.5,0-0.9-0.2-0.9-0.9V0h-1.2v8.1
	c0,1.3,0.7,1.8,1.9,1.8C23.4,10,23.7,10,23.8,9.9z M28.3,10.1c2.1,0,3.3-1.6,3.3-3.7s-1.2-3.6-3.3-3.6c-2.1,0-3.3,1.5-3.3,3.6
	S26.2,10.1,28.3,10.1z M28.3,3.9c1.5,0,2.1,1.2,2.1,2.5S29.7,9,28.3,9c-1.5,0-2.2-1.2-2.2-2.5S26.8,3.9,28.3,3.9z M38.2,9.4
	c0,1.3-0.6,2.2-2.4,2.2c-0.9,0-1.7-0.2-2.4-0.4v1.2c0.7,0.2,1.3,0.4,2.5,0.4c2.5,0,3.5-1.4,3.5-3.4V3h-1.2v1.2
	C37.8,3.3,37,2.8,36,2.8C34,2.8,33,4.5,33,6.5c0,2.1,0.9,3.6,2.8,3.6c1.1,0,1.9-0.5,2.4-1.4V9.4z M34.2,6.5c0-1.6,0.7-2.5,2.1-2.5
	c1,0,1.9,0.7,1.9,2.2v0.6c0,1.6-1,2.2-2,2.2C34.9,9,34.2,8.1,34.2,6.5z M46.1,2.2c0-0.6,0.4-1.1,1.1-1.1c0.3,0,0.5,0,0.8,0.1V0.1
	C47.8,0.1,47.6,0,47.2,0C45.7,0,45,0.9,45,2.2V3h-1.1v1.1H45V10h1.2V4.1H48V3h-1.8V2.2z M52.4,10.1c2.1,0,3.3-1.6,3.3-3.7
	s-1.2-3.6-3.3-3.6c-2.1,0-3.3,1.5-3.3,3.6S50.3,10.1,52.4,10.1z M52.4,3.9c1.5,0,2.1,1.2,2.1,2.5S53.9,9,52.4,9
	c-1.5,0-2.2-1.2-2.2-2.5S50.9,3.9,52.4,3.9z M58.8,5.8c0-1.5,0.9-1.9,2.5-1.8V2.9c-1.4-0.1-2.1,0.5-2.5,1.3V3h-1.2v7h1.2V5.8z
	 M67.3,7.8V4.1h1.9V3h-1.9V1.5h-1.2V3H65v1.1h1.1v3.7c0,1.3,0.7,2.2,2.2,2.2c0.4,0,0.6-0.1,0.8-0.1V8.7c-0.2,0-0.5,0.1-0.8,0.1
	C67.6,8.8,67.3,8.4,67.3,7.8z M73.7,3.9c1.2,0,1.8,0.7,1.9,2h-3.9C71.8,4.7,72.4,3.9,73.7,3.9z M76.4,9.7V8.6
	c-0.6,0.2-1.3,0.4-2.1,0.4c-1.7,0-2.4-0.8-2.6-2h5.1V6.4c0-2.1-0.9-3.6-3-3.6c-2.1,0-3.3,1.5-3.3,3.6c0,2.1,1.1,3.7,3.8,3.7
	C75,10.1,75.8,10,76.4,9.7z M79.5,6.5c0-1.6,0.7-2.5,2.1-2.5c1,0,1.9,0.7,1.9,2.2v0.6c0,1.6-1,2.2-2,2.2C80.2,9,79.5,8.1,79.5,6.5z
	 M83.5,10h1.2V3h-1.2v1.2c-0.4-0.9-1.2-1.4-2.2-1.4c-2,0-2.9,1.7-2.9,3.6c0,2.1,0.9,3.6,2.8,3.6c1.1,0,1.9-0.5,2.4-1.4V10z M93,6.1
	c0-1.4,0.8-2.2,1.9-2.2c1.1,0,1.7,0.7,1.7,2.2V10h1.2V5.9c0-2-0.9-3-2.4-3c-1.2,0-2.1,0.6-2.5,1.7c-0.3-1.1-1.2-1.7-2.4-1.7
	c-0.9,0-1.8,0.5-2.2,1.3V3H87v7h1.2V6.1c0-1.4,0.8-2.2,1.9-2.2c1.1,0,1.7,0.6,1.7,1.8V10H93V6.1z M104.7,8c0-1.2-0.8-1.8-2.3-2.2
	c-1.3-0.3-1.6-0.6-1.6-1.1c0-0.5,0.5-0.9,1.4-0.9c0.7,0,1.4,0.2,2.3,0.6V3.3c-0.5-0.3-1.3-0.5-2.3-0.5c-1.6,0-2.5,0.7-2.5,2
	c0,1.1,0.7,1.8,2.2,2.1c1.3,0.3,1.7,0.6,1.7,1.2c0,0.5-0.5,0.9-1.4,0.9c-0.9,0-1.9-0.3-2.5-0.7v1.3c0.5,0.3,1.4,0.5,2.4,0.5
	C103.9,10.1,104.7,9.2,104.7,8z M114.6,6.5c0,1.6-0.7,2.5-2.1,2.5c-1,0-1.9-0.7-1.9-2.2V6.2c0-1.6,1-2.2,2-2.2
	C113.9,3.9,114.6,4.8,114.6,6.5z M112.8,10.1c2,0,2.9-1.7,2.9-3.6c0-2.1-0.9-3.6-2.8-3.6c-1.1,0-1.9,0.5-2.4,1.4V0h-1.2V10h1.2V8.7
	C111,9.6,111.8,10.1,112.8,10.1z M119.9,9.5c-0.6,1.5-1,2.2-2,2.2c-0.3,0-0.8,0-1.2-0.2v1c0.4,0.1,0.7,0.2,1.3,0.2c1.8,0,2.2-1,3-3
	l2.6-6.8h-1.3l-2.2,6l-2.2-6h-1.3l2.5,6.6H119.9z"/>
<linearGradient id="SVGID_1_" gradientUnits="userSpaceOnUse" x1="7.9414" y1="-0.7786" x2="7.9414" y2="14.954" gradientTransform="matrix(1 0 0 -1 0 31.908)">
	<stop  offset="0" style="stop-color:#0052CC"/>
	<stop  offset="1" style="stop-color:#2684FF"/>
</linearGradient>
<path class="st1" d="M13.9,17h-12c-0.5,0-1,0.2-1.3,0.5c-0.4,0.4-0.5,0.8-0.5,1.3v12c0,0.2,0,0.5,0.1,0.7c0.1,0.2,0.2,0.4,0.4,0.6
	c0.2,0.2,0.4,0.3,0.6,0.4c0.2,0.1,0.5,0.1,0.7,0.1h12c0.2,0,0.5,0,0.7-0.1c0.2-0.1,0.4-0.2,0.6-0.4c0.2-0.2,0.3-0.4,0.4-0.6
	c0.1-0.2,0.1-0.5,0.1-0.7v-12c0-0.5-0.2-1-0.5-1.3C14.9,17.2,14.4,17,13.9,17z M6.9,28.3c0,0.1,0,0.2,0,0.2c0,0.1-0.1,0.1-0.1,0.2
	c-0.1,0.1-0.1,0.1-0.2,0.1c-0.1,0-0.2,0-0.2,0H3.6c-0.2,0-0.3-0.1-0.4-0.2C3.1,28.6,3,28.5,3,28.3v-7.8c0-0.2,0.1-0.3,0.2-0.4
	c0.1-0.1,0.3-0.2,0.4-0.2h2.6c0.2,0,0.3,0.1,0.4,0.2c0.1,0.1,0.2,0.3,0.2,0.4L6.9,28.3z M12.9,24.7c0,0.1,0,0.2,0,0.2
	c0,0.1-0.1,0.1-0.1,0.2c-0.1,0.1-0.1,0.1-0.2,0.1c-0.1,0-0.2,0-0.2,0H9.7c-0.2,0-0.3-0.1-0.4-0.2C9.1,25,9,24.9,9,24.7v-4.2
	c0-0.2,0.1-0.3,0.2-0.4c0.1-0.1,0.3-0.2,0.4-0.2h2.6c0.2,0,0.3,0.1,0.4,0.2c0.1,0.1,0.2,0.3,0.2,0.4L12.9,24.7z"/>
<path class="st2" d="M32.7,18.1v3h-3.6v11.5h-3.5V21.1H22v-3H32.7z"/>
<path class="st2" d="M37.1,32.7h-3.2V21.3h3.2v2.2c0.6-1.5,1.6-2.4,3.3-2.3v3.4c-2.3-0.2-3.3,0.4-3.3,2.2V32.7z"/>
<path class="st2" d="M58,32.8c-2.1,0-3.4-1-3.4-3.4V17h3.2v12c0,0.7,0.5,0.9,1,0.9c0.2,0,0.3,0,0.5,0v2.8
	C58.9,32.7,58.4,32.8,58,32.8z"/>
<path class="st2" d="M64.7,32.8c-2.1,0-3.4-1-3.4-3.4V17h3.2v12c0,0.7,0.5,0.9,1,0.9c0.2,0,0.3,0,0.5,0v2.8
	C65.6,32.7,65.2,32.8,64.7,32.8z"/>
<path class="st2" d="M67.6,27c0-3.5,2-5.9,5.5-5.9c3.5,0,5.5,2.4,5.5,5.9c0,3.5-2,5.9-5.5,5.9C69.6,33,67.6,30.5,67.6,27z M70.7,27
	c0,1.7,0.7,3.1,2.3,3.1c1.6,0,2.3-1.4,2.3-3.1c0-1.7-0.7-3-2.3-3C71.5,24,70.7,25.3,70.7,27z"/>
<path class="st2" d="M44.8,28c0.9,0.1,1.8,0.2,2.7,0.2c2.5,0,4.5-0.7,4.5-3c0-2.3-2.1-4.1-4.7-4.1c-3.5,0-5.7,2.5-5.7,6
	c0,3.6,1.9,5.8,6.2,5.8c1.3,0,2.6-0.2,3.8-0.7v-2.7c-1.1,0.4-2.4,0.7-3.6,0.7C46.3,30.2,45.1,29.7,44.8,28z M47.3,23.6
	c0.9,0,1.6,0.6,1.6,1.5c0,1.1-1.1,1.4-2.5,1.4c-0.6,0-1.1,0-1.7-0.1c0-0.5,0.2-1,0.4-1.5c0.2-0.4,0.5-0.7,0.9-0.9
	C46.4,23.7,46.8,23.6,47.3,23.6L47.3,23.6z"/>
</svg>
